# xmcd
#
# Track frame offsets: 
#        150
#        11255
#        22903
#        39256
#        54308
#        69530
#        84490
#        104652
#        126213
#        148762
#        172652
#
# Disc length: 2343 seconds
#
# Revision: 1
# Processed by: cddbd v1.5.2PL0 Copyright (c) Steve Scherf et al.
# Submitted via: ExactAudioCopyFreeDBPlugin 1.0
#
DISCID=8209250b
DTITLE=North-T - Lifework
DYEAR=2010
DGENRE=Instrumental
TTITLE0=inside
TTITLE1=curtain call
TTITLE2=L3
TTITLE3=child's step
TTITLE4=Port Land
TTITLE5=Fake the magic
TTITLE6=interlude +
TTITLE7=Style D
TTITLE8=All time for xxx
TTITLE9=outside...
TTITLE10=(bonus track)
EXTD=YEAR: 2010
EXTT0=
EXTT1=
EXTT2=
EXTT3=
EXTT4=
EXTT5=
EXTT6=
EXTT7=
EXTT8=
EXTT9=
EXTT10=
PLAYORDER=
